<svg version="1.0" xmlns="http://www.w3.org/2000/svg"
 width="298.000000pt" height="232.000000pt" viewBox="0 0 298.000000 232.000000"
 preserveAspectRatio="xMidYMid meet">

<g transform="translate(0.000000,232.000000) scale(0.100000,-0.100000)"
fill="#000000" stroke="none">
<path d="M1420 2140 c-17 -17 -20 -33 -20 -125 0 -93 -2 -105 -17 -105 -86 1
-1197 -63 -1226 -71 -71 -19 -72 -22 -72 -384 0 -338 3 -367 46 -393 15 -9
204 -23 637 -48 340 -18 620 -34 625 -34 4 0 7 -207 7 -460 l0 -460 75 0 75 0
0 455 c0 250 3 455 8 455 4 0 243 -14 532 -30 609 -35 670 -36 710 -15 60 31
60 30 60 523 l0 449 -23 34 c-41 61 -38 61 -618 29 -288 -16 -557 -31 -596
-34 l-73 -6 0 100 c0 116 -13 140 -75 140 -22 0 -43 -8 -55 -20z m1354 -246
c14 -14 16 -68 16 -448 0 -422 -1 -433 -20 -451 -20 -18 -58 -17 -1315 47
-711 36 -1299 69 -1304 73 -17 10 -15 651 2 662 13 8 2307 130 2494 132 89 1
115 -2 127 -15z"/>
<path d="M1390 1818 c-847 -42 -1227 -64 -1232 -72 -4 -6 -8 -142 -8 -302 0
-222 3 -294 12 -301 19 -15 2570 -134 2586 -121 17 15 18 828 0 846 -16 16 45
18 -1358 -50z m-772 -211 c4 -20 -25 -34 -39 -20 -14 14 1 45 20 41 9 -2 17
-11 19 -21z m-123 -92 c14 -13 25 -33 25 -45 0 -28 -33 -26 -45 3 -13 29 -64
36 -82 11 -7 -10 -13 -45 -13 -79 0 -34 6 -69 13 -79 18 -25 69 -18 82 12 12
28 45 30 45 2 0 -42 -64 -79 -115 -66 -80 20 -102 170 -35 238 37 37 90 39
125 3z m125 -110 c0 -128 -1 -135 -20 -135 -19 0 -20 7 -20 135 0 128 1 135
20 135 19 0 20 -7 20 -135z m110 119 c0 -14 2 -14 22 0 31 22 64 20 88 -4 18
-18 20 -33 20 -135 0 -108 -1 -115 -20 -115 -19 0 -20 7 -20 103 0 104 -7 127
-39 127 -8 0 -23 -7 -33 -17 -15 -13 -18 -32 -18 -115 0 -91 -1 -98 -20 -98
-19 0 -20 7 -20 135 0 128 1 135 20 135 11 0 20 -7 20 -16z m351 -13 c24 -24
29 -38 29 -75 l0 -46 -73 0 -74 0 5 -30 c2 -16 10 -35 18 -41 12 -10 28 -10
98 3 31 5 29 -20 -3 -36 -63 -33 -132 -10 -151 50 -8 22 -10 60 -7 93 5 46 11
61 37 84 41 37 83 36 121 -2z m129 19 c0 -7 6 -7 19 0 28 15 62 12 82 -6 16
-15 20 -15 41 0 12 9 33 16 46 16 62 0 82 -44 82 -182 0 -87 0 -88 -25 -88
l-25 0 0 103 c0 106 -7 127 -41 127 -35 0 -49 -39 -49 -137 0 -86 -1 -93 -20
-93 -19 0 -20 7 -20 96 0 105 -9 134 -43 134 -40 0 -47 -18 -47 -127 l0 -103
-25 0 -25 0 0 135 0 135 25 0 c14 0 25 -5 25 -10z m465 -2 c31 -14 33 -24 37
-155 3 -92 2 -103 -14 -103 -9 0 -21 7 -26 16 -8 14 -10 14 -21 0 -17 -20 -60
-20 -89 0 -17 12 -22 25 -22 59 0 55 33 85 91 85 40 0 48 14 33 54 -9 23 -61
20 -76 -4 -14 -22 -48 -27 -48 -7 1 29 49 66 87 67 12 0 34 -5 48 -12z"/>
<path d="M982 1488 c-7 -7 -12 -22 -12 -35 0 -21 4 -23 50 -23 53 0 56 3 40
44 -7 20 -17 26 -38 26 -15 0 -33 -5 -40 -12z"/>
<path d="M1595 1384 c-23 -24 -16 -68 12 -72 39 -6 63 15 63 53 0 32 -3 35
-29 35 -16 0 -37 -7 -46 -16z"/>
</g>
</svg>
